<svg width="209" height="45" viewBox="0 0 209 45" fill="none" xmlns="http://www.w3.org/2000/svg">
<path d="M27.6797 0.875V35H21.2109L6.70312 11.3281V35H0.257812V0.875H6.70312L21.2578 24.5703V0.875H27.6797ZM32.6719 22.5781V22.0859C32.6719 20.2266 32.9375 18.5156 33.4688 16.9531C34 15.375 34.7734 14.0078 35.7891 12.8516C36.8047 11.6953 38.0469 10.7969 39.5156 10.1562C40.9844 9.5 42.6562 9.17188 44.5312 9.17188C46.4375 9.17188 48.125 9.5 49.5938 10.1562C51.0781 10.7969 52.3281 11.6953 53.3438 12.8516C54.3594 14.0078 55.1328 15.375 55.6641 16.9531C56.1953 18.5156 56.4609 20.2266 56.4609 22.0859V22.5781C56.4609 24.4219 56.1953 26.1328 55.6641 27.7109C55.1328 29.2734 54.3594 30.6406 53.3438 31.8125C52.3281 32.9688 51.0859 33.8672 49.6172 34.5078C48.1484 35.1484 46.4688 35.4688 44.5781 35.4688C42.7031 35.4688 41.0234 35.1484 39.5391 34.5078C38.0547 33.8672 36.8047 32.9688 35.7891 31.8125C34.7734 30.6406 34 29.2734 33.4688 27.7109C32.9375 26.1328 32.6719 24.4219 32.6719 22.5781ZM38.8594 22.0859V22.5781C38.8594 23.6875 38.9688 24.7266 39.1875 25.6953C39.4062 26.6641 39.7422 27.5156 40.1953 28.25C40.6484 28.9844 41.2344 29.5625 41.9531 29.9844C42.6875 30.3906 43.5625 30.5938 44.5781 30.5938C45.5781 30.5938 46.4375 30.3906 47.1562 29.9844C47.875 29.5625 48.4609 28.9844 48.9141 28.25C49.3828 27.5156 49.7266 26.6641 49.9453 25.6953C50.1641 24.7266 50.2734 23.6875 50.2734 22.5781V22.0859C50.2734 20.9922 50.1641 19.9688 49.9453 19.0156C49.7266 18.0469 49.3828 17.1953 48.9141 16.4609C48.4609 15.7109 47.8672 15.125 47.1328 14.7031C46.4141 14.2656 45.5469 14.0469 44.5312 14.0469C43.5312 14.0469 42.6719 14.2656 41.9531 14.7031C41.2344 15.125 40.6484 15.7109 40.1953 16.4609C39.7422 17.1953 39.4062 18.0469 39.1875 19.0156C38.9688 19.9688 38.8594 20.9922 38.8594 22.0859ZM72.9609 9.64062V14.0938H58.4297V9.64062H72.9609ZM62.3203 3.40625H68.5312V27.6875C68.5312 28.4375 68.6328 29.0156 68.8359 29.4219C69.0391 29.8281 69.3438 30.1016 69.75 30.2422C70.1562 30.3828 70.6406 30.4531 71.2031 30.4531C71.6094 30.4531 71.9844 30.4297 72.3281 30.3828C72.6719 30.3359 72.9609 30.2891 73.1953 30.2422L73.2188 34.8828C72.7031 35.0547 72.1172 35.1953 71.4609 35.3047C70.8203 35.4141 70.0938 35.4688 69.2812 35.4688C67.8906 35.4688 66.6719 35.2344 65.625 34.7656C64.5781 34.2812 63.7656 33.5078 63.1875 32.4453C62.6094 31.3672 62.3203 29.9453 62.3203 28.1797V3.40625ZM88.4766 35.4688C86.5547 35.4688 84.8281 35.1562 83.2969 34.5312C81.7656 33.9062 80.4609 33.0391 79.3828 31.9297C78.3203 30.8047 77.5 29.5 76.9219 28.0156C76.3594 26.5156 76.0781 24.9062 76.0781 23.1875V22.25C76.0781 20.2969 76.3594 18.5234 76.9219 16.9297C77.4844 15.3203 78.2812 13.9375 79.3125 12.7812C80.3438 11.625 81.5781 10.7344 83.0156 10.1094C84.4531 9.48438 86.0391 9.17188 87.7734 9.17188C89.5703 9.17188 91.1562 9.47656 92.5312 10.0859C93.9062 10.6797 95.0547 11.5234 95.9766 12.6172C96.8984 13.7109 97.5938 15.0234 98.0625 16.5547C98.5312 18.0703 98.7656 19.75 98.7656 21.5938V24.1953H78.8906V19.9297H92.6719V19.4609C92.6406 18.4766 92.4531 17.5781 92.1094 16.7656C91.7656 15.9375 91.2344 15.2812 90.5156 14.7969C89.7969 14.2969 88.8672 14.0469 87.7266 14.0469C86.8047 14.0469 86 14.25 85.3125 14.6562C84.6406 15.0469 84.0781 15.6094 83.625 16.3438C83.1875 17.0625 82.8594 17.9219 82.6406 18.9219C82.4219 19.9219 82.3125 21.0312 82.3125 22.25V23.1875C82.3125 24.25 82.4531 25.2344 82.7344 26.1406C83.0312 27.0469 83.4609 27.8359 84.0234 28.5078C84.6016 29.1641 85.2891 29.6797 86.0859 30.0547C86.8984 30.4141 87.8203 30.5938 88.8516 30.5938C90.1484 30.5938 91.3203 30.3438 92.3672 29.8438C93.4297 29.3281 94.3516 28.5703 95.1328 27.5703L98.25 30.8047C97.7188 31.5859 97 32.3359 96.0938 33.0547C95.2031 33.7734 94.125 34.3594 92.8594 34.8125C91.5938 35.25 90.1328 35.4688 88.4766 35.4688ZM116.859 28.0625C116.859 27.5312 116.719 27.0547 116.438 26.6328C116.156 26.2109 115.625 25.8281 114.844 25.4844C114.078 25.125 112.953 24.7891 111.469 24.4766C110.156 24.1953 108.945 23.8438 107.836 23.4219C106.727 23 105.773 22.4922 104.977 21.8984C104.18 21.2891 103.555 20.5781 103.102 19.7656C102.664 18.9375 102.445 17.9844 102.445 16.9062C102.445 15.8594 102.672 14.875 103.125 13.9531C103.578 13.0156 104.234 12.1953 105.094 11.4922C105.953 10.7734 107 10.2109 108.234 9.80469C109.469 9.38281 110.859 9.17188 112.406 9.17188C114.562 9.17188 116.414 9.52344 117.961 10.2266C119.523 10.9297 120.719 11.8984 121.547 13.1328C122.375 14.3516 122.789 15.7266 122.789 17.2578H116.602C116.602 16.5859 116.445 15.9766 116.133 15.4297C115.836 14.8828 115.375 14.4453 114.75 14.1172C114.125 13.7734 113.336 13.6016 112.383 13.6016C111.523 13.6016 110.797 13.7422 110.203 14.0234C109.625 14.3047 109.188 14.6719 108.891 15.125C108.594 15.5781 108.445 16.0781 108.445 16.625C108.445 17.0312 108.523 17.3984 108.68 17.7266C108.852 18.0391 109.125 18.3281 109.5 18.5938C109.875 18.8594 110.383 19.1016 111.023 19.3203C111.68 19.5391 112.484 19.75 113.438 19.9531C115.328 20.3281 116.977 20.8281 118.383 21.4531C119.805 22.0625 120.914 22.875 121.711 23.8906C122.508 24.9062 122.906 26.2031 122.906 27.7812C122.906 28.9062 122.664 29.9375 122.18 30.875C121.695 31.7969 120.992 32.6016 120.07 33.2891C119.148 33.9766 118.047 34.5156 116.766 34.9062C115.484 35.2812 114.039 35.4688 112.43 35.4688C110.102 35.4688 108.133 35.0547 106.523 34.2266C104.914 33.3828 103.695 32.3203 102.867 31.0391C102.039 29.7422 101.625 28.3984 101.625 27.0078H107.555C107.602 27.9922 107.867 28.7812 108.352 29.375C108.836 29.9688 109.445 30.3984 110.18 30.6641C110.93 30.9141 111.719 31.0391 112.547 31.0391C113.484 31.0391 114.273 30.9141 114.914 30.6641C115.555 30.3984 116.039 30.0469 116.367 29.6094C116.695 29.1562 116.859 28.6406 116.859 28.0625Z" fill="#4F4F4F"/>
<path d="M141.656 6.05469L131.93 35H125.109L137.859 0.875H142.219L141.656 6.05469ZM149.789 35L140.016 6.05469L139.43 0.875H143.812L156.633 35H149.789ZM149.344 22.3203V27.4062H131.039V22.3203H149.344ZM165.258 14.5156V44.75H159.047V9.64062H164.789L165.258 14.5156ZM181.547 22.0625V22.5547C181.547 24.3984 181.328 26.1094 180.891 27.6875C180.469 29.25 179.844 30.6172 179.016 31.7891C178.188 32.9453 177.156 33.8516 175.922 34.5078C174.703 35.1484 173.297 35.4688 171.703 35.4688C170.141 35.4688 168.781 35.1719 167.625 34.5781C166.469 33.9688 165.492 33.1094 164.695 32C163.898 30.8906 163.258 29.6016 162.773 28.1328C162.305 26.6484 161.953 25.0312 161.719 23.2812V21.7109C161.953 19.8516 162.305 18.1641 162.773 16.6484C163.258 15.1172 163.898 13.7969 164.695 12.6875C165.492 11.5625 166.461 10.6953 167.602 10.0859C168.758 9.47656 170.109 9.17188 171.656 9.17188C173.266 9.17188 174.68 9.47656 175.898 10.0859C177.133 10.6953 178.172 11.5703 179.016 12.7109C179.859 13.8516 180.492 15.2109 180.914 16.7891C181.336 18.3672 181.547 20.125 181.547 22.0625ZM175.336 22.5547V22.0625C175.336 20.9375 175.234 19.8984 175.031 18.9453C174.828 17.9766 174.516 17.1328 174.094 16.4141C173.672 15.6797 173.125 15.1094 172.453 14.7031C171.781 14.2969 170.969 14.0938 170.016 14.0938C169.062 14.0938 168.242 14.25 167.555 14.5625C166.867 14.875 166.305 15.3203 165.867 15.8984C165.43 16.4766 165.086 17.1641 164.836 17.9609C164.602 18.7422 164.445 19.6094 164.367 20.5625V24.4531C164.508 25.6094 164.781 26.6484 165.188 27.5703C165.594 28.4922 166.188 29.2266 166.969 29.7734C167.766 30.3203 168.797 30.5938 170.062 30.5938C171.016 30.5938 171.828 30.3828 172.5 29.9609C173.172 29.5391 173.719 28.9609 174.141 28.2266C174.562 27.4766 174.867 26.6172 175.055 25.6484C175.242 24.6797 175.336 23.6484 175.336 22.5547ZM192.258 14.5156V44.75H186.047V9.64062H191.789L192.258 14.5156ZM208.547 22.0625V22.5547C208.547 24.3984 208.328 26.1094 207.891 27.6875C207.469 29.25 206.844 30.6172 206.016 31.7891C205.188 32.9453 204.156 33.8516 202.922 34.5078C201.703 35.1484 200.297 35.4688 198.703 35.4688C197.141 35.4688 195.781 35.1719 194.625 34.5781C193.469 33.9688 192.492 33.1094 191.695 32C190.898 30.8906 190.258 29.6016 189.773 28.1328C189.305 26.6484 188.953 25.0312 188.719 23.2812V21.7109C188.953 19.8516 189.305 18.1641 189.773 16.6484C190.258 15.1172 190.898 13.7969 191.695 12.6875C192.492 11.5625 193.461 10.6953 194.602 10.0859C195.758 9.47656 197.109 9.17188 198.656 9.17188C200.266 9.17188 201.68 9.47656 202.898 10.0859C204.133 10.6953 205.172 11.5703 206.016 12.7109C206.859 13.8516 207.492 15.2109 207.914 16.7891C208.336 18.3672 208.547 20.125 208.547 22.0625ZM202.336 22.5547V22.0625C202.336 20.9375 202.234 19.8984 202.031 18.9453C201.828 17.9766 201.516 17.1328 201.094 16.4141C200.672 15.6797 200.125 15.1094 199.453 14.7031C198.781 14.2969 197.969 14.0938 197.016 14.0938C196.062 14.0938 195.242 14.25 194.555 14.5625C193.867 14.875 193.305 15.3203 192.867 15.8984C192.43 16.4766 192.086 17.1641 191.836 17.9609C191.602 18.7422 191.445 19.6094 191.367 20.5625V24.4531C191.508 25.6094 191.781 26.6484 192.188 27.5703C192.594 28.4922 193.188 29.2266 193.969 29.7734C194.766 30.3203 195.797 30.5938 197.062 30.5938C198.016 30.5938 198.828 30.3828 199.5 29.9609C200.172 29.5391 200.719 28.9609 201.141 28.2266C201.562 27.4766 201.867 26.6172 202.055 25.6484C202.242 24.6797 202.336 23.6484 202.336 22.5547Z" fill="url(#paint0_linear_1930_344)"/>
<defs>
<linearGradient id="paint0_linear_1930_344" x1="90.5" y1="18" x2="224.5" y2="18" gradientUnits="userSpaceOnUse">
<stop stop-color="#3D7FFF"/>
<stop offset="1" stop-color="#62FFD3"/>
</linearGradient>
</defs>
</svg>
